<?xml version="1.0" encoding="UTF-8"?><svg id="a" xmlns="http://www.w3.org/2000/svg" viewBox="0 0 122.96 135.3"><defs><style>.b{fill:#231f20;}</style></defs><path class="b" d="M61.37,0C27.49,.41-.98,26.83,.03,59.87c1.07,34.87,61.46,77.49,61.78,75.21,2.67,3.63,57.57-38.36,60.9-75.21C126.04,23,95.8-.41,61.37,0Zm47.41,56.41c.18,25.7-42.74,62.34-46.98,65.31-.19,.13,.19,.13,0,0-4.52-2.92-47.19-39.62-46.96-65.31,.21-24.05,21.03-43.54,46.97-43.54s46.8,19.5,46.97,43.54Z"/><path class="b" d="M61.81,30.1c-14.9,0-26.98,11.95-26.98,26.7s12.08,26.7,26.98,26.7,26.98-11.95,26.98-26.7-12.08-26.7-26.98-26.7Zm0,41c-8.56,0-15.49-6.4-15.49-14.3s6.94-14.3,15.49-14.3,15.49,6.4,15.49,14.3-6.94,14.3-15.49,14.3Z"/></svg>