<svg width="135" height="109" viewBox="0 0 135 109" fill="none" xmlns="http://www.w3.org/2000/svg">
<path d="M4.78199 1L1 4.77647M4.78199 26.8059L1 30.5824M4.78199 52.6118L1 56.3882M4.78199 78.4176L1 82.1941M4.78199 104.224L1 108M30.6256 1L26.8436 4.77647M30.6256 26.8059L26.8436 30.5824M30.6256 52.6118L26.8436 56.3882M30.6256 78.4176L26.8436 82.1941M30.6256 104.224L26.8436 108M56.4692 1L52.6872 4.77647M56.4692 26.8059L52.6872 30.5824M56.4692 52.6118L52.6872 56.3882M56.4692 78.4176L52.6872 82.1941M56.4692 104.224L52.6872 108M82.3128 1L78.5308 4.77647M82.3128 26.8059L78.5308 30.5824M82.3128 52.6118L78.5308 56.3882M82.3128 78.4176L78.5308 82.1941M82.3128 104.224L78.5308 108M108.156 1L104.374 4.77647M108.156 26.8059L104.374 30.5824M108.156 52.6118L104.374 56.3882M108.156 78.4176L104.374 82.1941M108.156 104.224L104.374 108M134 1L130.218 4.77647M134 26.8059L130.218 30.5824M134 52.6118L130.218 56.3882M134 78.4176L130.218 82.1941M134 104.224L130.218 108" stroke="#34251F" stroke-width="2"/>
</svg>
