<svg width="21" height="14" viewBox="0 0 21 14" fill="none" xmlns="http://www.w3.org/2000/svg">
<path opacity="0.5" fill-rule="evenodd" clip-rule="evenodd" d="M8.2033 12.6H16.9967L19.3288 5.6H5.87125L8.2033 12.6ZM8.69855 14C7.79205 14 6.9909 13.4218 6.7053 12.5615L3.46395 2.8343C3.17835 1.981 2.38315 1.40525 1.48435 1.4H0V0H1.4805C2.9883 0.00035 4.32215 0.96145 4.79955 2.39155L5.40365 4.2H18.3575C18.5871 4.2 18.8108 4.2364 19.025 4.3078C19.5573 4.48525 19.9885 4.85905 20.2395 5.36095C20.4904 5.8625 20.5307 6.43195 20.3532 6.96395L18.4846 12.5636C18.1982 13.4228 17.3975 14 16.492 14H8.69855Z" fill="#646379"/>
</svg>
