<svg width="31" height="29" viewBox="0 0 31 29" fill="none" xmlns="http://www.w3.org/2000/svg">
<path fill-rule="evenodd" clip-rule="evenodd" d="M16 26.5367C13.8305 25.1306 2.37149 17.3301 2.37149 9.40861C2.35456 5.53183 5.48376 2.37533 9.36055 2.3584C11.8365 2.34735 14.1348 3.6418 15.4093 5.76398L16 6.74509L16.5907 5.76398C18.5965 2.44615 22.9117 1.38213 26.2295 3.38754C28.3372 4.6616 29.623 6.94615 29.6181 9.40861C29.6181 17.7239 18.1868 25.1897 16 26.5367ZM22.5914 1.00004C20.0174 0.991752 17.5843 2.17393 16 4.20248C14.4157 2.17393 11.9826 0.991752 9.40857 1.00004C4.76693 1.00592 1.00587 4.76697 1 9.40861C1 18.8916 15.0431 27.573 15.6545 27.9396L16 28.1534L16.3455 27.9462C18.943 26.376 21.3795 24.5551 23.6209 22.5086C28.5161 18.0175 31 13.6163 31 9.40861C30.9941 4.76697 27.2331 1.00592 22.5914 1.00004Z" fill="#FF5252"/>
<path d="M2.37149 9.40861H2.87149L2.87148 9.40643L2.37149 9.40861ZM9.36055 2.3584L9.36273 2.8584L9.36278 2.8584L9.36055 2.3584ZM15.4093 5.76398L14.9806 6.02139L14.9809 6.02189L15.4093 5.76398ZM16 6.74509L15.5717 7.003L16 7.71441L16.4283 7.003L16 6.74509ZM16.5907 5.76398L16.1629 5.5053L16.1624 5.50606L16.5907 5.76398ZM26.2295 3.38754L26.4882 2.95964L26.4881 2.95963L26.2295 3.38754ZM29.6181 9.40861L29.1181 9.40763V9.40861H29.6181ZM16 4.20248L15.6059 4.51024L16 5.01481L16.3941 4.51024L16 4.20248ZM9.40857 1.00004L9.4092 1.50004L9.41018 1.50004L9.40857 1.00004ZM1 9.40861L0.5 9.40798V9.40861H1ZM15.6545 27.9396L15.9177 27.5144L15.9116 27.5107L15.6545 27.9396ZM16 28.1534L15.7368 28.5786L15.9959 28.739L16.2572 28.5822L16 28.1534ZM16.3455 27.9462L16.6027 28.3749L16.6041 28.3741L16.3455 27.9462ZM23.6209 22.5086L23.9581 22.8778L23.9589 22.877L23.6209 22.5086ZM31 9.40861H31.5V9.40798L31 9.40861ZM16.2719 26.1171C15.1992 25.4219 11.825 23.142 8.72461 20.0612C5.5987 16.9551 2.87149 13.1518 2.87149 9.40861H1.87149C1.87149 13.5869 4.87378 17.6446 8.01975 20.7706C11.1913 23.922 14.6313 26.2454 15.7281 26.9563L16.2719 26.1171ZM2.87148 9.40643C2.85576 5.8058 5.76207 2.87412 9.36273 2.8584L9.35837 1.85841C5.20545 1.87654 1.85336 5.25786 1.87149 9.41079L2.87148 9.40643ZM9.36278 2.8584C11.6623 2.84813 13.797 4.05036 14.9806 6.02139L15.8379 5.50657C14.4727 3.23323 12.0107 1.84657 9.35832 1.85841L9.36278 2.8584ZM14.9809 6.02189L15.5717 7.003L16.4283 6.48718L15.8376 5.50606L14.9809 6.02189ZM16.4283 7.003L17.0191 6.02189L16.1624 5.50606L15.5717 6.48718L16.4283 7.003ZM17.0186 6.02265C18.8816 2.94109 22.8894 1.95289 25.9709 3.81544L26.4881 2.95963C22.934 0.811357 18.3114 1.95122 16.1629 5.5053L17.0186 6.02265ZM25.9708 3.81543C27.9285 4.99879 29.1226 7.12061 29.1181 9.40763L30.1181 9.40959C30.1233 6.77169 28.7459 4.32442 26.4882 2.95964L25.9708 3.81543ZM29.1181 9.40861C29.1181 13.3519 26.3929 17.1716 23.2788 20.229C20.1859 23.2656 16.8171 25.4461 15.7378 26.1109L16.2622 26.9624C17.3697 26.2802 20.8099 24.0544 23.9794 20.9425C27.1277 17.8515 30.1181 13.7806 30.1181 9.40861H29.1181ZM22.593 0.500046C19.8645 0.491257 17.2853 1.7444 15.6059 3.89473L16.3941 4.51024C17.8833 2.60346 20.1703 1.49225 22.5898 1.50004L22.593 0.500046ZM16.3941 3.89473C14.7147 1.7444 12.1355 0.491257 9.40696 0.500046L9.41018 1.50004C11.8297 1.49225 14.1167 2.60346 15.6059 4.51024L16.3941 3.89473ZM9.40794 0.500044C4.49065 0.506265 0.506222 4.49069 0.5 9.40798L1.5 9.40924C1.50552 5.04325 5.04321 1.50557 9.4092 1.50004L9.40794 0.500044ZM0.5 9.40861C0.5 11.9026 1.42246 14.3143 2.77805 16.5154C4.13451 18.7178 5.9415 20.7369 7.75393 22.4556C11.3779 25.892 15.0755 28.1754 15.3975 28.3684L15.9116 27.5107C15.6221 27.3372 11.9925 25.0966 8.44201 21.7299C6.66723 20.047 4.92524 18.0948 3.62952 15.991C2.33293 13.8857 1.5 11.6561 1.5 9.40861H0.5ZM15.3914 28.3647L15.7368 28.5786L16.2632 27.7283L15.9177 27.5144L15.3914 28.3647ZM16.2572 28.5822L16.6027 28.3749L16.0882 27.5174L15.7428 27.7247L16.2572 28.5822ZM16.6041 28.3741C19.2297 26.787 21.6925 24.9464 23.9581 22.8778L23.2838 22.1393C21.0666 24.1638 18.6563 25.9651 16.0868 27.5183L16.6041 28.3741ZM23.9589 22.877C28.8984 18.3454 31.5 13.8203 31.5 9.40861H30.5C30.5 13.4124 28.1339 17.6897 23.2829 22.1401L23.9589 22.877ZM31.5 9.40798C31.4938 4.49069 27.5094 0.506265 22.5921 0.500044L22.5908 1.50004C26.9568 1.50557 30.4945 5.04325 30.5 9.40924L31.5 9.40798Z" fill="#FF5252"/>
</svg>
