<svg width="16" height="17" viewBox="0 0 16 17" fill="none" xmlns="http://www.w3.org/2000/svg">
<path fill-rule="evenodd" clip-rule="evenodd" d="M2.86515 3.59076L6.62954 1.68291C7.13181 1.4581 7.52608 1.35751 7.90143 1.35076C8.27612 1.34333 8.66971 1.42839 9.17131 1.6316L13.1396 3.59346C13.6749 3.8581 14.1111 4.09236 14.4196 4.39008C14.6991 4.65945 14.8449 4.95245 14.8449 5.37709V13.8652C14.8449 14.8252 14.1853 15.5948 13.3644 15.5948H11.466H10.3109H5.68979H4.53401H2.63561C1.81401 15.5948 1.15511 14.8252 1.15511 13.8652V5.37709C1.15511 4.93894 1.29283 4.6608 1.55409 4.40696C1.85249 4.11666 2.28591 3.88443 2.86515 3.59076M15.1554 3.34839C14.697 2.9062 14.1043 2.60443 13.5892 2.34991L9.60405 0.379281C9.5919 0.373205 9.5811 0.368479 9.56894 0.363753C8.97553 0.12139 8.43814 -0.00958011 7.88321 0.000546472C7.32827 0.0113482 6.79291 0.162572 6.20354 0.427213C6.19612 0.431264 6.18802 0.434639 6.18127 0.43869L2.4054 2.35261C1.86059 2.62806 1.26447 2.93185 0.815527 3.36865C0.329452 3.8419 0 4.4819 0 5.37709V13.8652C0 15.5705 1.17671 16.945 2.63561 16.945H5.11055H5.1119H10.8881H10.8888H13.3644C14.8233 16.945 16 15.5705 16 13.8652V5.37709C16 4.46907 15.6415 3.81827 15.1554 3.34839" fill="#B5B3BE"/>
</svg>
