<svg width="18" height="17" viewBox="0 0 18 17" fill="none" xmlns="http://www.w3.org/2000/svg">
<path fill-rule="evenodd" clip-rule="evenodd" d="M2.5 0C1.11929 0 0 1.11929 0 2.5V4.5C0 5.88071 1.11929 7 2.5 7H6.5C7.88071 7 9 5.88071 9 4.5V2.5C9 1.11929 7.88071 0 6.5 0H2.5ZM2.5 10C1.11929 10 0 11.1193 0 12.5V14.5C0 15.8807 1.11929 17 2.5 17H4.5C5.88071 17 7 15.8807 7 14.5V12.5C7 11.1193 5.88071 10 4.5 10H2.5ZM9 12.5C9 11.1193 10.1193 10 11.5 10H15.5C16.8807 10 18 11.1193 18 12.5V14.5C18 15.8807 16.8807 17 15.5 17H11.5C10.1193 17 9 15.8807 9 14.5V12.5ZM13.5 0C12.1193 0 11 1.11929 11 2.5V4.5C11 5.88071 12.1193 7 13.5 7H15.5C16.8807 7 18 5.88071 18 4.5V2.5C18 1.11929 16.8807 0 15.5 0H13.5Z" fill="#646379"/>
</svg>
