<svg width="10" height="15" viewBox="0 0 10 15" fill="none" xmlns="http://www.w3.org/2000/svg">
<path fill-rule="evenodd" clip-rule="evenodd" d="M4.2618 13.3353L4.50004 13.6265L4.73827 13.3353C4.8971 13.15 8.9471 8.38531 8.9471 5.55295C8.9471 3.11766 6.93533 1.1059 4.50004 1.1059C2.06474 1.1059 0.0529785 3.09119 0.0529785 5.55295C0.0529785 8.18012 3.53745 12.447 4.16904 13.2205C4.21837 13.2809 4.2503 13.32 4.2618 13.3353ZM0.688273 5.52648C0.688273 3.43531 2.38239 1.71472 4.50004 1.71472C6.61768 1.71472 8.3118 3.43531 8.3118 5.52648C8.3118 7.77648 5.37357 11.5353 4.50004 12.6206C3.62651 11.5353 0.688273 7.75001 0.688273 5.52648Z" fill="#9A96A9"/>
<path d="M4.50004 13.6265L4.30655 13.7848L4.50004 14.0213L4.69353 13.7848L4.50004 13.6265ZM4.2618 13.3353L4.06162 13.4854L4.06831 13.4936L4.2618 13.3353ZM4.73827 13.3353L4.54841 13.1726L4.54478 13.177L4.73827 13.3353ZM4.16904 13.2205L4.36268 13.0623L4.16904 13.2205ZM4.50004 12.6206L4.30528 12.7774L4.50004 13.0193L4.69479 12.7774L4.50004 12.6206ZM4.69353 13.4682L4.45529 13.177L4.06831 13.4936L4.30655 13.7848L4.69353 13.4682ZM4.54478 13.177L4.30655 13.4682L4.69353 13.7848L4.93176 13.4936L4.54478 13.177ZM8.6971 5.55295C8.6971 6.20853 8.46071 6.99902 8.08388 7.83506C7.7091 8.66655 7.20551 9.52135 6.69342 10.2993C5.66937 11.8551 4.6248 13.0835 4.54846 13.1726L4.92809 13.498C5.01057 13.4018 6.07041 12.1552 7.11107 10.5742C7.63133 9.78383 8.15016 8.9048 8.53972 8.04052C8.92723 7.18078 9.1971 6.31356 9.1971 5.55295H8.6971ZM4.50004 1.3559C6.79726 1.3559 8.6971 3.25573 8.6971 5.55295H9.1971C9.1971 2.97959 7.0734 0.855896 4.50004 0.855896V1.3559ZM0.302979 5.55295C0.302979 3.23023 2.20185 1.3559 4.50004 1.3559V0.855896C1.92764 0.855896 -0.197021 2.95215 -0.197021 5.55295H0.302979ZM4.36268 13.0623C4.04781 12.6768 3.02671 11.4262 2.08503 9.94757C1.61414 9.20817 1.16631 8.41668 0.836913 7.6517C0.505925 6.88304 0.302979 6.16026 0.302979 5.55295H-0.197021C-0.197021 6.25923 0.0355911 7.05501 0.377678 7.84945C0.721357 8.64759 1.18412 9.46376 1.66329 10.2162C2.62175 11.7211 3.65868 12.9907 3.97541 13.3786L4.36268 13.0623ZM4.4618 13.1853C4.44624 13.1646 4.40926 13.1194 4.36268 13.0623L3.97541 13.3786C4.02748 13.4424 4.05435 13.4754 4.0618 13.4853L4.4618 13.1853ZM4.50004 1.46472C2.24319 1.46472 0.438273 3.29837 0.438273 5.52648H0.938273C0.938273 3.57225 2.52159 1.96472 4.50004 1.96472V1.46472ZM8.5618 5.52648C8.5618 3.29837 6.75688 1.46472 4.50004 1.46472V1.96472C6.47848 1.96472 8.0618 3.57225 8.0618 5.52648H8.5618ZM4.69479 12.7774C5.13348 12.2323 6.09395 11.012 6.94578 9.64234C7.37166 8.95759 7.77343 8.23072 8.06942 7.52866C8.36385 6.83029 8.5618 6.13758 8.5618 5.52648H8.0618C8.0618 6.04039 7.89248 6.66129 7.60869 7.33442C7.32646 8.00387 6.93907 8.7064 6.5212 9.37827C5.68554 10.7219 4.74012 11.9236 4.30528 12.4638L4.69479 12.7774ZM0.438273 5.52648C0.438273 6.13128 0.636433 6.82087 0.930719 7.51764C1.22665 8.2183 1.62834 8.94588 2.05415 9.63218C2.90586 11.0049 3.86618 12.2318 4.30528 12.7774L4.69479 12.4638C4.26036 11.9241 3.3148 10.7157 2.47902 9.36858C2.06108 8.69496 1.67361 7.99147 1.39132 7.3231C1.10739 6.65085 0.938273 6.03345 0.938273 5.52648H0.438273Z" fill="#9A96A9"/>
<path fill-rule="evenodd" clip-rule="evenodd" d="M2.80591 5.55294C2.80591 6.47941 3.57356 7.24706 4.50003 7.24706C5.4265 7.24706 6.19414 6.47941 6.19414 5.55294C6.19414 4.62647 5.4265 3.85883 4.50003 3.85883C3.57356 3.85883 2.80591 4.62647 2.80591 5.55294ZM3.4412 5.55294C3.4412 4.97059 3.91767 4.49412 4.50003 4.49412C5.08238 4.49412 5.55885 4.97059 5.55885 5.55294C5.55885 6.1353 5.08238 6.61177 4.50003 6.61177C3.91767 6.61177 3.4412 6.1353 3.4412 5.55294Z" fill="#9A96A9"/>
<path d="M4.50003 6.99706C3.71163 6.99706 3.05591 6.34134 3.05591 5.55294H2.55591C2.55591 6.61749 3.43548 7.49706 4.50003 7.49706V6.99706ZM5.94414 5.55294C5.94414 6.34134 5.28843 6.99706 4.50003 6.99706V7.49706C5.56457 7.49706 6.44414 6.61749 6.44414 5.55294H5.94414ZM4.50003 4.10883C5.28843 4.10883 5.94414 4.76454 5.94414 5.55294H6.44414C6.44414 4.4884 5.56457 3.60883 4.50003 3.60883V4.10883ZM3.05591 5.55294C3.05591 4.76454 3.71163 4.10883 4.50003 4.10883V3.60883C3.43548 3.60883 2.55591 4.4884 2.55591 5.55294H3.05591ZM4.50003 4.24412C3.7796 4.24412 3.1912 4.83252 3.1912 5.55294H3.6912C3.6912 5.10866 4.05574 4.74412 4.50003 4.74412V4.24412ZM5.80885 5.55294C5.80885 4.83252 5.22045 4.24412 4.50003 4.24412V4.74412C4.94431 4.74412 5.30885 5.10866 5.30885 5.55294H5.80885ZM4.50003 6.86177C5.22045 6.86177 5.80885 6.27337 5.80885 5.55294H5.30885C5.30885 5.99723 4.94431 6.36177 4.50003 6.36177V6.86177ZM3.1912 5.55294C3.1912 6.27337 3.7796 6.86177 4.50003 6.86177V6.36177C4.05574 6.36177 3.6912 5.99723 3.6912 5.55294H3.1912Z" fill="#9A96A9"/>
</svg>
