<svg width="16" height="16" viewBox="0 0 16 16" fill="none" xmlns="http://www.w3.org/2000/svg">
<g opacity="0.5">
<path fill-rule="evenodd" clip-rule="evenodd" d="M7.9278 1.44145C9.29717 1.44145 10.3783 2.52253 10.3783 3.89191C10.3783 5.26128 9.29717 6.34237 7.9278 6.34237C6.55842 6.34237 5.47734 5.26128 5.47734 3.89191C5.47734 2.52253 6.55842 1.44145 7.9278 1.44145M7.9278 7.78382C10.09 7.78382 11.8197 6.05408 11.8197 3.89191C11.8197 1.72974 10.09 0 7.9278 0C5.76563 0 4.03589 1.72974 4.03589 3.89191C4.03589 6.05408 5.76563 7.78382 7.9278 7.78382" fill="#646379"/>
<path fill-rule="evenodd" clip-rule="evenodd" d="M9.51356 8.93689H6.34237C2.81082 8.93689 0 11.8198 0 15.2793C0 15.7117 0.28829 16 0.720724 16C1.15316 16 1.44145 15.7117 1.44145 15.2793C1.44145 12.5405 3.67569 10.3783 6.34237 10.3783H9.51356C12.2523 10.3783 14.4145 12.6126 14.4145 15.2793C14.4145 15.7117 14.7028 16 15.1352 16C15.5669 16 15.8559 15.7117 15.8559 15.2793C15.8559 11.8198 12.973 8.93689 9.51356 8.93689" fill="#646379"/>
</g>
<g opacity="0.5">
<path fill-rule="evenodd" clip-rule="evenodd" d="M7.9278 1.44145C9.29717 1.44145 10.3783 2.52253 10.3783 3.89191C10.3783 5.26128 9.29717 6.34237 7.9278 6.34237C6.55842 6.34237 5.47734 5.26128 5.47734 3.89191C5.47734 2.52253 6.55842 1.44145 7.9278 1.44145M7.9278 7.78382C10.09 7.78382 11.8197 6.05408 11.8197 3.89191C11.8197 1.72974 10.09 0 7.9278 0C5.76563 0 4.03589 1.72974 4.03589 3.89191C4.03589 6.05408 5.76563 7.78382 7.9278 7.78382" fill="#646379"/>
<path fill-rule="evenodd" clip-rule="evenodd" d="M9.51356 8.93689H6.34237C2.81082 8.93689 0 11.8198 0 15.2793C0 15.7117 0.28829 16 0.720724 16C1.15316 16 1.44145 15.7117 1.44145 15.2793C1.44145 12.5405 3.67569 10.3783 6.34237 10.3783H9.51356C12.2523 10.3783 14.4145 12.6126 14.4145 15.2793C14.4145 15.7117 14.7028 16 15.1352 16C15.5669 16 15.8559 15.7117 15.8559 15.2793C15.8559 11.8198 12.973 8.93689 9.51356 8.93689" fill="#646379"/>
</g>
<g opacity="0.5">
<path fill-rule="evenodd" clip-rule="evenodd" d="M7.9278 1.44145C9.29717 1.44145 10.3783 2.52253 10.3783 3.89191C10.3783 5.26128 9.29717 6.34237 7.9278 6.34237C6.55842 6.34237 5.47734 5.26128 5.47734 3.89191C5.47734 2.52253 6.55842 1.44145 7.9278 1.44145M7.9278 7.78382C10.09 7.78382 11.8197 6.05408 11.8197 3.89191C11.8197 1.72974 10.09 0 7.9278 0C5.76563 0 4.03589 1.72974 4.03589 3.89191C4.03589 6.05408 5.76563 7.78382 7.9278 7.78382" fill="#646379"/>
<path fill-rule="evenodd" clip-rule="evenodd" d="M9.51356 8.93689H6.34237C2.81082 8.93689 0 11.8198 0 15.2793C0 15.7117 0.28829 16 0.720724 16C1.15316 16 1.44145 15.7117 1.44145 15.2793C1.44145 12.5405 3.67569 10.3783 6.34237 10.3783H9.51356C12.2523 10.3783 14.4145 12.6126 14.4145 15.2793C14.4145 15.7117 14.7028 16 15.1352 16C15.5669 16 15.8559 15.7117 15.8559 15.2793C15.8559 11.8198 12.973 8.93689 9.51356 8.93689" fill="#646379"/>
</g>
<g opacity="0.5">
<path fill-rule="evenodd" clip-rule="evenodd" d="M7.9278 1.44145C9.29717 1.44145 10.3783 2.52253 10.3783 3.89191C10.3783 5.26128 9.29717 6.34237 7.9278 6.34237C6.55842 6.34237 5.47734 5.26128 5.47734 3.89191C5.47734 2.52253 6.55842 1.44145 7.9278 1.44145M7.9278 7.78382C10.09 7.78382 11.8197 6.05408 11.8197 3.89191C11.8197 1.72974 10.09 0 7.9278 0C5.76563 0 4.03589 1.72974 4.03589 3.89191C4.03589 6.05408 5.76563 7.78382 7.9278 7.78382" fill="#646379"/>
<path fill-rule="evenodd" clip-rule="evenodd" d="M9.51356 8.93689H6.34237C2.81082 8.93689 0 11.8198 0 15.2793C0 15.7117 0.28829 16 0.720724 16C1.15316 16 1.44145 15.7117 1.44145 15.2793C1.44145 12.5405 3.67569 10.3783 6.34237 10.3783H9.51356C12.2523 10.3783 14.4145 12.6126 14.4145 15.2793C14.4145 15.7117 14.7028 16 15.1352 16C15.5669 16 15.8559 15.7117 15.8559 15.2793C15.8559 11.8198 12.973 8.93689 9.51356 8.93689" fill="#646379"/>
</g>
<g opacity="0.5">
<path fill-rule="evenodd" clip-rule="evenodd" d="M7.9278 1.44145C9.29717 1.44145 10.3783 2.52253 10.3783 3.89191C10.3783 5.26128 9.29717 6.34237 7.9278 6.34237C6.55842 6.34237 5.47734 5.26128 5.47734 3.89191C5.47734 2.52253 6.55842 1.44145 7.9278 1.44145M7.9278 7.78382C10.09 7.78382 11.8197 6.05408 11.8197 3.89191C11.8197 1.72974 10.09 0 7.9278 0C5.76563 0 4.03589 1.72974 4.03589 3.89191C4.03589 6.05408 5.76563 7.78382 7.9278 7.78382" fill="#646379"/>
<path fill-rule="evenodd" clip-rule="evenodd" d="M9.51356 8.93689H6.34237C2.81082 8.93689 0 11.8198 0 15.2793C0 15.7117 0.28829 16 0.720724 16C1.15316 16 1.44145 15.7117 1.44145 15.2793C1.44145 12.5405 3.67569 10.3783 6.34237 10.3783H9.51356C12.2523 10.3783 14.4145 12.6126 14.4145 15.2793C14.4145 15.7117 14.7028 16 15.1352 16C15.5669 16 15.8559 15.7117 15.8559 15.2793C15.8559 11.8198 12.973 8.93689 9.51356 8.93689" fill="#646379"/>
</g>
</svg>
