<svg width="25" height="25" viewBox="0 0 25 25" fill="none" xmlns="http://www.w3.org/2000/svg">
<g clip-path="url(#clip0_1_1403)">
<path d="M17.2064 0.855087C15.9461 0.942262 14.473 1.749 13.6146 2.79952C12.8315 3.75253 12.1873 5.16801 12.4384 6.54359C13.8155 6.58644 15.2384 5.7605 16.0628 4.69224C16.8341 3.69786 17.4177 2.29125 17.2064 0.855087Z" fill="#A8A8A8"/>
<path d="M22.187 8.78647C20.9769 7.26904 19.2763 6.38843 17.6702 6.38843C15.5499 6.38843 14.6531 7.40349 13.18 7.40349C11.6611 7.40349 10.5071 6.39138 8.6735 6.39138C6.87239 6.39138 4.95455 7.49215 3.73854 9.37452C2.02903 12.0252 2.32158 17.0089 5.09196 21.2539C6.08338 22.7728 7.40726 24.4808 9.13893 24.4956C10.68 24.5104 11.1144 23.5071 13.2021 23.4968C15.2899 23.485 15.6859 24.5089 17.224 24.4927C18.9571 24.4794 20.3534 22.5866 21.3448 21.0677C22.0555 19.9788 22.32 19.4306 22.8711 18.2013C18.8626 16.675 18.2199 10.9747 22.187 8.78647Z" fill="#A8A8A8"/>
</g>
<defs>
<clipPath id="clip0_1_1403">
<rect width="23.6407" height="23.6407" fill="white" transform="translate(0.954102 0.855118)"/>
</clipPath>
</defs>
</svg>
